<?xml version="1.0" encoding="UTF-8" standalone="no"?>
<!DOCTYPE svg PUBLIC "-//W3C//DTD SVG 1.1//EN" "http://www.w3.org/Graphics/SVG/1.1/DTD/svg11.dtd">
<svg width="100%" height="100%" viewBox="0 0 148 137" version="1.1" xmlns="http://www.w3.org/2000/svg" xmlns:xlink="http://www.w3.org/1999/xlink" xml:space="preserve" xmlns:serif="http://www.serif.com/" style="fill-rule:evenodd;clip-rule:evenodd;stroke-linejoin:round;stroke-miterlimit:2;">
    <g>
        <g opacity="0.85">
            <path d="M56.976,80.128c9.956,2.646 13.373,8.519 7.622,13.106c-5.75,4.586 -18.501,6.16 -28.456,3.513c-9.954,-2.647 -13.372,-8.519 -7.622,-13.106c5.751,-4.587 18.503,-6.161 28.456,-3.513Zm-7.651,6.103c-2.641,-0.702 -6.024,-0.283 -7.55,0.934c-1.526,1.217 -0.622,2.776 2.019,3.478c2.642,0.702 6.024,0.284 7.55,-0.934c1.526,-1.217 0.622,-2.775 -2.019,-3.478Z" style="fill:#fff;"/>
            <path d="M121.168,96.785c0.223,-0.337 -0.427,25.187 -0.427,25.187l0.132,0.627l-0.006,9.563l-0.151,0.708l-0.439,0.664l-0.692,0.6l-0.914,0.52l-1.106,0.429l-1.276,0.325l-1.415,0.207l-1.506,0.071l-20.351,0.002l-1.472,-0.068l-1.399,-0.2l-1.291,-0.324l-1.141,-0.439l-0.938,-0.537l-0.689,-0.607l-0.426,-0.658l-0.146,-0.691l0.001,-0.325l-18.146,0c-0.146,0.114 -0.298,0.227 -0.457,0.339c-6.489,4.587 -20.876,6.16 -32.107,3.513c-10.711,-2.524 -14.715,-7.98 -9.438,-12.458l-10.084,-7.129l-8.161,0.001l-1.397,-0.069l-1.33,-0.2l-1.226,-0.324l-1.083,-0.439l-0.89,-0.537l-0.655,-0.607l-0.404,-0.658l-0.138,-0.691l0.004,-9.562l0.145,-0.708l0.417,-0.665l0.658,-0.599l0.866,-0.52l1.051,-0.429l1.212,-0.325l1.343,-0.207c0,0 1.428,-0.071 1.429,-0.071l6.93,-0.001l10.456,-7.392c0.022,0.053 0.044,0.106 0.067,0.159c1.341,3.082 5.029,6.217 10.293,7.532c11.202,2.8 25.494,0.999 32.169,-3.775l18.328,0l0.25,0.386c0.151,0.234 0.331,0.444 0.534,0.622l0.69,0.607c0.141,0.124 0.292,0.233 0.452,0.325l0.937,0.536c0.117,0.067 0.238,0.125 0.362,0.173l1.141,0.439c0.097,0.037 0.196,0.069 0.296,0.094l1.291,0.324c0.085,0.021 0.17,0.037 0.255,0.05l1.4,0.2c0.078,0.011 0.157,0.018 0.236,0.022l1.472,0.068c0.038,0.002 0.077,0.003 0.115,0.003l16.788,-0.002c0.039,0 0.078,-0.001 0.117,-0.003l1.505,-0.071c0.081,-0.004 0.161,-0.011 0.242,-0.023l1.415,-0.207c0.086,-0.012 0.172,-0.03 0.257,-0.051l1.277,-0.326c0.099,-0.025 0.196,-0.056 0.292,-0.094l1.106,-0.429c0.12,-0.046 0.237,-0.102 0.35,-0.166l0.913,-0.52c0.156,-0.089 0.303,-0.194 0.441,-0.313l0.692,-0.599c0.203,-0.176 0.383,-0.382 0.536,-0.613l0.438,0.336Z" style="fill:#fff;"/>
            <path d="M109.899,95.435l-0.002,0l-22.045,0.002l-1.658,-0.067l-1.579,-0.196l-1.456,-0.317l-1.29,-0.432l-1.057,-0.526l-0.778,-0.594l-0.479,-0.645l-0.164,-0.677l0.004,-8.997l0.172,-0.694l0.496,-0.652l0.78,-0.587l1.031,-0.51l1.248,-0.42l1.44,-0.319l1.596,-0.202c-0,-0 1.699,-0.07 1.698,-0.07l22.047,-0.003l1.658,0.067l1.579,0.196l1.457,0.317l1.289,0.432l1.057,0.526l0.778,0.595l0.479,0.644l0.164,0.677l-0.004,8.999l-0.172,0.694l-0.496,0.651l-0.782,0.588l-1.03,0.509l-1.248,0.42l-1.44,0.319l-1.595,0.202l-1.698,0.07Zm-8.462,-6.907l0.001,-2.09l-5.12,0l-0.002,2.091l5.121,-0.001Z" style="fill:#fff;"/>
        </g>
        <path d="M55.012,121.094c8.075,2.003 10.847,6.447 6.184,9.918c-4.663,3.471 -15.006,4.661 -23.082,2.657c-8.076,-2.003 -10.848,-6.447 -6.185,-9.918c4.663,-3.47 15.007,-4.661 23.083,-2.657Zm-2.773,2.063c-5.425,-1.345 -12.373,-0.545 -15.505,1.786c-3.132,2.331 -1.271,5.317 4.153,6.663c5.424,1.345 12.372,0.545 15.505,-1.786c3.132,-2.332 1.271,-5.317 -4.153,-6.663Z" style="fill:#302043;"/>
        <path d="M53.998,122.123c7.106,1.675 9.544,5.39 5.442,8.29c-4.104,2.901 -13.204,3.897 -20.311,2.222c-7.107,-1.675 -9.545,-5.389 -5.442,-8.29c4.103,-2.901 13.204,-3.896 20.311,-2.222Z" style="fill:#6e5179;"/>
        <path d="M113.48,133.354l-20.577,0.002c-0.68,-0 -1.332,-0.125 -1.813,-0.349c-0.481,-0.223 -0.752,-0.527 -0.752,-0.843l0.005,-9.562c-0,-0.659 1.149,-1.193 2.565,-1.193l20.577,-0.002c0.68,-0 1.333,0.126 1.813,0.349c0.481,0.224 0.752,0.527 0.752,0.843l-0.005,9.563c-0,0.658 -1.148,1.192 -2.565,1.192Zm-2.564,-2.384l0.003,-7.178l-15.446,0.001l-0.004,7.179l15.447,-0.002Z" style="fill:#302043;"/>
        <path d="M114.906,132.162l-23.429,0.002l0.005,-9.562l23.429,-0.003l-0.005,9.563Z" style="fill:#6e5179;"/>
        <path d="M25.291,113.771l-20.576,0.002c-0.68,-0 -1.332,-0.126 -1.814,-0.35c-0.481,-0.223 -0.752,-0.527 -0.752,-0.843l0.005,-9.562c-0,-0.658 1.149,-1.192 2.565,-1.192l20.576,-0.003c0.681,0 1.334,0.126 1.815,0.349c0.48,0.224 0.751,0.527 0.751,0.844l-0.005,9.562c-0,0.659 -1.149,1.193 -2.565,1.193Zm-2.563,-2.384l0.003,-7.179l-15.447,0.002l-0.003,7.178l15.447,-0.001Z" style="fill:#302043;"/>
        <path d="M26.716,112.578l-23.428,0.002l0.005,-9.562l23.429,-0.002l-0.006,9.562Z" style="fill:#6e5179;"/>
        <path d="M67.59,128.136l-0,-2.093c-0.001,-0.201 0.4,-0.365 0.893,-0.365l8.748,0l0,-1.579c0,-0.147 0.217,-0.28 0.552,-0.337c0.333,-0.056 0.717,-0.025 0.973,0.079l7.327,2.991c0.348,0.142 0.348,0.373 -0.001,0.516l-7.325,2.99c-0.257,0.104 -0.64,0.136 -0.974,0.079c-0.335,-0.056 -0.552,-0.19 -0.552,-0.337l0,-1.579l-8.749,-0c-0.493,-0 -0.892,-0.163 -0.892,-0.365Z" style="fill:#271d2b;"/>
        <path d="M35.295,119.265l-4.441,1.047c-0.428,0.1 -0.974,0.04 -1.221,-0.134l-1.423,-1.007l-3.351,0.79c-0.313,0.074 -0.704,0.063 -0.99,-0.027c-0.286,-0.09 -0.413,-0.241 -0.32,-0.383l2.682,-4.085c0.127,-0.195 0.618,-0.31 1.094,-0.258l10.008,1.095c0.348,0.038 0.608,0.158 0.654,0.304c0.047,0.146 -0.126,0.29 -0.439,0.363l-3.351,0.79l1.425,1.007c0.247,0.174 0.1,0.397 -0.327,0.498Z" style="fill:#271d2b;"/>
        <g opacity="0.85">
            <path d="M122.143,54.804l5.43,3.838c3.31,0.018 6.654,0.433 9.722,1.285c9.528,2.647 12.8,8.519 7.295,13.107c-3.548,2.956 -9.882,4.661 -16.489,4.79l-9.143,6.464l0.133,0.627l-0.006,8.303l-0.152,0.708l-0.438,0.664l-0.692,0.6l-0.914,0.52l-1.106,0.429l-1.276,0.325l-1.415,0.207l-1.506,0.071l-16.787,0.002l-1.472,-0.068l-1.399,-0.2l-1.291,-0.324l-1.141,-0.439l-0.938,-0.537l-0.689,-0.607l-0.426,-0.658l-0.145,-0.691l-0,-0.325l-21.116,0c-0.137,0.113 -0.28,0.225 -0.428,0.336c-6.12,4.588 -19.687,6.161 -30.279,3.514c-7.058,-1.764 -10.918,-7.024 -7.628,-10.704l-12.563,-8.881l0,-16.611c0,-0 8.943,-7.15 8.95,-7.134c1.299,2.979 4.445,5.908 10.428,7.738c6.733,2.06 14.366,2.435 20.605,1.122c4.186,-0.88 7.763,-2.55 10.219,-4.852l19.723,0l0.156,0.242c0.169,0.26 0.369,0.493 0.594,0.692l0.69,0.607c0.157,0.138 0.325,0.259 0.503,0.361l0.937,0.536c0.13,0.075 0.265,0.139 0.403,0.192l1.141,0.439c0.108,0.042 0.218,0.077 0.329,0.105l1.291,0.323c0.094,0.024 0.189,0.042 0.284,0.056l1.399,0.2c0.088,0.013 0.175,0.021 0.263,0.025l1.472,0.068c0.043,0.002 0.085,0.003 0.128,0.003l16.788,-0.001c0.043,-0 0.086,-0.002 0.13,-0.004l1.505,-0.071c0.09,-0.004 0.18,-0.013 0.269,-0.026l1.415,-0.206c0.096,-0.014 0.192,-0.034 0.286,-0.058l1.277,-0.325c0.11,-0.028 0.218,-0.063 0.325,-0.104l1.106,-0.43c0.134,-0.051 0.264,-0.113 0.389,-0.185l0.914,-0.52c0.172,-0.098 0.337,-0.215 0.49,-0.348l0.692,-0.599c0.226,-0.195 0.426,-0.425 0.595,-0.681l0.439,-0.665c0.248,-0.375 0.426,-0.802 0.523,-1.255l0.201,-0.99Z"/>
        </g>
        <path d="M137.111,61.947c7.65,2.003 10.275,6.448 5.856,9.92c-4.419,3.472 -14.218,4.664 -21.868,2.66c-7.651,-2.003 -10.275,-6.449 -5.856,-9.92c4.419,-3.473 14.218,-4.664 21.868,-2.66Zm-2.628,2.064c-5.138,-1.345 -11.721,-0.544 -14.689,1.788c-2.968,2.332 -1.206,5.317 3.933,6.663c5.139,1.346 11.72,0.545 14.688,-1.787c2.969,-2.332 1.207,-5.318 -3.932,-6.664Z" style="fill:#c8b7dd;"/>
        <path d="M136.542,62.979c7.107,1.675 9.544,5.39 5.439,8.292c-4.105,2.902 -13.207,3.898 -20.313,2.224c-7.107,-1.675 -9.544,-5.39 -5.439,-8.292c4.105,-2.902 13.206,-3.898 20.313,-2.224Z" style="fill:#6e5179;"/>
        <path d="M55.012,82.147c8.075,2.004 10.847,6.448 6.184,9.918c-4.663,3.471 -15.006,4.661 -23.082,2.658c-8.076,-2.004 -10.848,-6.448 -6.185,-9.918c4.663,-3.471 15.007,-4.661 23.083,-2.658Zm-2.773,2.064c-5.425,-1.346 -12.373,-0.546 -15.505,1.786c-3.132,2.331 -1.271,5.316 4.153,6.662c5.424,1.346 12.372,0.545 15.505,-1.786c3.132,-2.331 1.271,-5.316 -4.153,-6.662Z" style="fill:#c8b7dd;"/>
        <path d="M53.998,83.179c7.106,1.675 9.544,5.39 5.442,8.29c-4.104,2.901 -13.204,3.897 -20.311,2.222c-7.107,-1.675 -9.545,-5.389 -5.442,-8.29c4.103,-2.901 13.204,-3.896 20.311,-2.222Z" style="fill:#6e5179;"/>
        <path d="M113.48,94.41l-20.577,0.002c-0.68,-0 -1.332,-0.126 -1.813,-0.349c-0.481,-0.224 -0.752,-0.527 -0.752,-0.843l0.005,-9.563c-0,-0.658 1.149,-1.192 2.565,-1.192l20.577,-0.002c0.68,-0 1.333,0.126 1.813,0.349c0.481,0.224 0.752,0.527 0.752,0.843l-0.005,9.563c-0,0.658 -1.148,1.192 -2.565,1.192Zm-2.564,-2.384l0.003,-7.179l-15.446,0.002l-0.004,7.178l15.447,-0.001Z" style="fill:#c8b7dd;"/>
        <path d="M114.906,93.218l-23.429,0.002l0.005,-9.563l23.429,-0.002l-0.005,9.563Z" style="fill:#6e5179;"/>
        <path d="M67.59,89.192l-0,-2.093c-0.001,-0.201 0.4,-0.365 0.893,-0.365l8.748,0l0,-1.579c0,-0.147 0.217,-0.28 0.552,-0.337c0.333,-0.056 0.717,-0.025 0.973,0.079l7.327,2.991c0.348,0.142 0.348,0.373 -0.001,0.515l-7.325,2.991c-0.257,0.104 -0.64,0.136 -0.974,0.079c-0.335,-0.057 -0.552,-0.19 -0.552,-0.337l0,-1.579l-8.749,-0c-0.493,-0 -0.892,-0.164 -0.892,-0.365Z" style="fill:#fff;"/>
        <path d="M112.39,80.77l-4.441,-1.046c-0.427,-0.101 -0.597,-0.307 -0.378,-0.462l1.83,-1.294l-3.351,-0.789c-0.312,-0.074 -0.498,-0.209 -0.47,-0.341c0.028,-0.133 0.265,-0.237 0.599,-0.265l9.586,-0.797c0.456,-0.038 0.946,0.077 1.094,0.258l3.104,3.787c0.107,0.132 0.003,0.268 -0.264,0.344c-0.267,0.076 -0.646,0.078 -0.96,0.004l-3.35,-0.79l-1.829,1.294c-0.22,0.155 -0.742,0.198 -1.17,0.097Z" style="fill:#fff;"/>
        <g opacity="0.85">
            <path d="M128.101,38.88l-9.143,6.464l0.133,0.627l-0.006,8.303l-0.152,0.708l-0.438,0.664l-0.692,0.599l-0.914,0.521l-1.106,0.429l-1.276,0.325l-1.415,0.207l-1.506,0.071l-16.787,0.002l-1.472,-0.068l-1.399,-0.201l-1.291,-0.323l-1.141,-0.44l-0.938,-0.536l-0.689,-0.607l-0.426,-0.658l-0.145,-0.691l-0,-0.325l-22.896,-0c-0.137,0.113 -0.3,0.199 -0.431,0.338c-5.228,5.588 -18.027,6.717 -28.496,3.514c-7.95,-2.432 -10.028,-6.586 -8.518,-10.965l-11.673,-8.622l-8.161,0l-1.397,-0.068l-1.33,-0.2l-1.226,-0.324l-1.083,-0.439l-0.89,-0.537l-0.655,-0.607l-0.404,-0.658l-0.138,-0.691l0.004,-9.562l0.145,-0.708l0.417,-0.665l0.658,-0.599l0.866,-0.52l1.051,-0.429l1.212,-0.326l1.343,-0.206c0,-0 1.428,-0.071 1.429,-0.071l6.93,-0.001l11.875,-8.396c-2.331,-2.648 -2.084,-5.746 1.256,-8.41c5.751,-4.588 18.503,-6.161 28.457,-3.514c3.441,0.915 6.102,2.216 7.872,3.715l18.574,0l0.127,-0.596l0.428,-0.652l0.673,-0.587l0.889,-0.51l1.077,-0.42l1.243,-0.319l1.377,-0.202c-0,-0 1.466,-0.071 1.465,-0.071l16.349,-0.002l1.431,0.067l1.362,0.196l1.257,0.317l1.113,0.432l0.912,0.526l0.671,0.595l0.413,0.644l0.142,0.677l-0.003,4.201l15.086,10.402l0,19.182Z" style="fill:#fff;"/>
        </g>
        <path d="M53.677,3.305c8.076,2.004 10.847,6.448 6.182,9.92c-4.664,3.472 -15.009,4.663 -23.086,2.66c-8.075,-2.003 -10.846,-6.449 -6.181,-9.92c4.664,-3.473 15.01,-4.663 23.085,-2.66Zm-2.774,2.064c-5.424,-1.345 -12.372,-0.545 -15.506,1.788c-3.134,2.332 -1.273,5.318 4.151,6.663c5.425,1.346 12.373,0.546 15.506,-1.786c3.134,-2.333 1.274,-5.319 -4.151,-6.665Z" style="fill:#302043;"/>
        <path d="M52.662,4.337c7.106,1.675 9.544,5.391 5.439,8.292c-4.104,2.902 -13.206,3.898 -20.313,2.224c-7.106,-1.675 -9.543,-5.391 -5.439,-8.292c4.105,-2.902 13.207,-3.898 20.313,-2.224Z" style="fill:#6e5179;"/>
        <path d="M55.012,43.203c8.075,2.004 10.847,6.448 6.184,9.918c-4.663,3.471 -15.006,4.661 -23.082,2.658c-8.076,-2.004 -10.848,-6.448 -6.185,-9.919c4.663,-3.47 15.007,-4.66 23.083,-2.657Zm-2.773,2.064c-5.425,-1.346 -12.373,-0.546 -15.505,1.786c-3.132,2.331 -1.271,5.316 4.153,6.662c5.424,1.345 12.372,0.545 15.505,-1.786c3.132,-2.331 1.271,-5.316 -4.153,-6.662Z" style="fill:#302043;"/>
        <path d="M53.998,44.235c7.106,1.675 9.544,5.389 5.442,8.29c-4.104,2.901 -13.204,3.896 -20.311,2.222c-7.107,-1.675 -9.545,-5.389 -5.442,-8.29c4.103,-2.901 13.204,-3.896 20.311,-2.222Z" style="fill:#6e5179;"/>
        <path d="M108.471,15.215l-19.192,0.002c-0.634,-0 -1.242,-0.119 -1.692,-0.329c-0.448,-0.21 -0.7,-0.495 -0.7,-0.793l0.004,-8.997c-0,-0.62 1.071,-1.122 2.392,-1.122l19.193,-0.003c0.634,0 1.243,0.118 1.691,0.329c0.449,0.21 0.701,0.496 0.701,0.793l-0.004,8.999c-0,0.619 -1.072,1.121 -2.393,1.121Zm-2.391,-2.243l0.003,-6.755l-14.407,0.002l-0.003,6.754l14.407,-0.001Z" style="fill:#302043;"/>
        <path d="M109.897,14.094l-22.045,0.001l0.005,-8.997l22.046,-0.003l-0.006,8.999Z" style="fill:#6e5179;"/>
        <path d="M113.48,55.466l-20.577,0.002c-0.68,-0 -1.332,-0.126 -1.813,-0.349c-0.481,-0.224 -0.752,-0.527 -0.752,-0.843l0.005,-9.563c-0,-0.658 1.149,-1.192 2.565,-1.192l20.577,-0.002c0.68,-0 1.333,0.125 1.813,0.349c0.481,0.223 0.752,0.527 0.752,0.843l-0.005,9.563c-0,0.658 -1.148,1.192 -2.565,1.192Zm-2.564,-2.384l0.003,-7.179l-15.446,0.002l-0.004,7.178l15.447,-0.001Z" style="fill:#302043;"/>
        <path d="M114.906,54.274l-23.429,0.002l0.005,-9.563l23.429,-0.002l-0.005,9.563Z" style="fill:#6e5179;"/>
        <path d="M25.291,35.883l-20.576,0.001c-0.68,0 -1.332,-0.125 -1.814,-0.349c-0.481,-0.223 -0.752,-0.527 -0.752,-0.843l0.005,-9.562c-0,-0.658 1.149,-1.192 2.565,-1.192l20.576,-0.003c0.681,0 1.334,0.126 1.815,0.349c0.48,0.224 0.751,0.527 0.751,0.843l-0.005,9.563c-0,0.659 -1.149,1.193 -2.565,1.193Zm-2.563,-2.385l0.003,-7.178l-15.447,0.001l-0.003,7.179l15.447,-0.002Z" style="fill:#302043;"/>
        <path d="M26.716,34.69l-23.428,0.002l0.005,-9.562l23.429,-0.003l-0.006,9.563Z" style="fill:#6e5179;"/>
        <path d="M65.484,10.733l-0,-2.093c-0,-0.201 0.401,-0.365 0.894,-0.364l7.257,-0l-0,-1.58c-0,-0.147 0.217,-0.28 0.551,-0.336c0.334,-0.057 0.718,-0.025 0.974,0.079l7.326,2.99c0.349,0.142 0.349,0.374 0.001,0.515l-7.327,2.991c-0.256,0.104 -0.641,0.135 -0.974,0.079c-0.333,-0.056 -0.551,-0.189 -0.551,-0.337l-0,-1.579l-7.257,0c-0.494,0 -0.893,-0.163 -0.894,-0.365Z" style="fill:#271d2b;"/>
        <path d="M85.344,48.155l0,2.093c0.001,0.202 -0.4,0.365 -0.894,0.365l-8.747,-0l-0,1.579c-0,0.148 -0.218,0.28 -0.552,0.337c-0.333,0.056 -0.717,0.025 -0.973,-0.079l-7.327,-2.99c-0.349,-0.143 -0.349,-0.374 0.001,-0.516l7.325,-2.991c0.257,-0.104 0.64,-0.135 0.974,-0.079c0.334,0.057 0.552,0.19 0.552,0.337l-0,1.579l8.748,0c0.494,0 0.893,0.164 0.893,0.365Z" style="fill:#271d2b;"/>
        <path d="M35.295,41.377l-4.441,1.046c-0.428,0.101 -0.974,0.041 -1.221,-0.133l-1.423,-1.007l-3.351,0.79c-0.313,0.073 -0.704,0.063 -0.99,-0.027c-0.286,-0.09 -0.413,-0.241 -0.32,-0.384l2.682,-4.084c0.127,-0.195 0.618,-0.31 1.094,-0.258l10.008,1.094c0.348,0.039 0.608,0.159 0.654,0.305c0.047,0.146 -0.126,0.289 -0.439,0.363l-3.351,0.79l1.425,1.007c0.247,0.174 0.1,0.397 -0.327,0.498Z" style="fill:#271d2b;"/>
        <path d="M30.922,22.764l-4.441,-1.047c-0.428,-0.1 -0.581,-0.318 -0.344,-0.486l2.331,-1.648l-3.35,-0.789c-0.314,-0.074 -0.491,-0.214 -0.45,-0.356c0.041,-0.143 0.292,-0.257 0.637,-0.292l9.872,-0.999c0.471,-0.048 0.961,0.068 1.095,0.257l2.816,3.99c0.098,0.139 -0.02,0.285 -0.301,0.371c-0.281,0.085 -0.667,0.093 -0.98,0.019l-3.351,-0.789l-2.33,1.647c-0.238,0.168 -0.777,0.223 -1.204,0.122Z" style="fill:#271d2b;"/>
    </g>
</svg>
