<?xml version="1.0" encoding="UTF-8" standalone="no"?>
<!DOCTYPE svg PUBLIC "-//W3C//DTD SVG 1.1//EN" "http://www.w3.org/Graphics/SVG/1.1/DTD/svg11.dtd">
<svg width="100%" height="100%" viewBox="0 0 250 250" version="1.1" xmlns="http://www.w3.org/2000/svg" xmlns:xlink="http://www.w3.org/1999/xlink" xml:space="preserve" xmlns:serif="http://www.serif.com/" style="fill-rule:evenodd;clip-rule:evenodd;stroke-linecap:round;stroke-linejoin:round;stroke-miterlimit:1.5;">
    <rect id="Artboard1" x="0" y="0" width="250" height="250" style="fill:none;"/>
    <path d="M215.292,243.786l-211.584,0.013l39.271,-46.056l133.139,-0.018l39.174,46.061Z" style="fill:#3d2d43;stroke:#7c5ba3;stroke-width:3.71px;"/>
    <path d="M154.548,74.391c43.06,5.088 57.833,16.371 32.974,25.182c-24.864,8.812 -80.007,11.836 -123.067,6.748c-43.065,-5.087 -57.837,-16.37 -32.973,-25.182c24.858,-8.811 80.007,-11.835 123.066,-6.748Z" style="fill:#563f71;stroke:#7c5ba3;stroke-width:3.71px;"/>
    <path d="M112.117,53.485l-103.176,-31.941l103.176,-15.343l97.942,15.343l-97.942,31.941Z" style="fill:#ab96c4;stroke:#7c5ba3;stroke-width:3.71px;"/>
    <path d="M111.84,131.201l75.713,9.126l22.506,25.206l-98.219,16.079l-102.899,-16.079l22.506,-25.206l80.393,-9.126Z" style="fill:#ab96c4;stroke:#7c5ba3;stroke-width:3.71px;"/>
    <path d="M220.025,218.356c-0.746,0 -1.35,0.604 -1.35,1.349c0,1.97 0,5.71 0,8.573c0,0.617 -0.378,1.17 -0.953,1.394c-0.575,0.224 -1.229,0.073 -1.646,-0.382c-3.713,-4.043 -10.403,-11.327 -13.27,-14.448c-0.771,-0.84 -0.771,-2.131 0,-2.971c3.075,-3.347 10.546,-11.483 14.027,-15.273c0.296,-0.322 0.759,-0.43 1.167,-0.271c0.407,0.159 0.675,0.551 0.675,0.988c0,2.771 0,6.931 0,8.913c0,0.623 0.505,1.128 1.129,1.128c2.098,0 6.638,0 9.404,0c1.266,0 2.292,-1.026 2.292,-2.291c-0,-20.965 -0,-178.709 -0,-178.709l-9.166,0c-0.807,0 -1.58,-0.32 -2.151,-0.891c-0.57,-0.57 -0.891,-1.344 -0.891,-2.151c0,-1.495 0,-3.295 0,-4.805c0,-0.836 0.332,-1.638 0.923,-2.229c0.592,-0.592 1.393,-0.924 2.23,-0.924c4.719,0 13.513,0 17.709,0c0.623,0 1.219,0.247 1.659,0.687c0.44,0.44 0.687,1.037 0.687,1.659c-0,20.62 -0,170.853 -0,196.832c-0,2.111 -1.711,3.822 -3.822,3.822c-5.429,0 -15.108,0 -18.653,0Z" style="fill:#2b2b2b;"/>
</svg>
