<?xml version="1.0" encoding="UTF-8" standalone="no"?>
<!DOCTYPE svg PUBLIC "-//W3C//DTD SVG 1.1//EN" "http://www.w3.org/Graphics/SVG/1.1/DTD/svg11.dtd">
<svg width="100%" height="100%" viewBox="0 0 558 173" version="1.1" xmlns="http://www.w3.org/2000/svg" xmlns:xlink="http://www.w3.org/1999/xlink" xml:space="preserve" xmlns:serif="http://www.serif.com/" style="fill-rule:evenodd;clip-rule:evenodd;stroke-linejoin:round;stroke-miterlimit:2;">
    <rect id="Artboard1" x="0" y="0" width="558" height="173" style="fill:none;"/>
    <g id="Artboard11" serif:id="Artboard1">
        <g>
            <g opacity="0.85">
                <path d="M84.513,98.139c9.956,2.647 13.373,8.52 7.622,13.107c-5.75,4.586 -18.501,6.16 -28.456,3.513c-9.954,-2.647 -13.372,-8.519 -7.622,-13.106c5.751,-4.588 18.503,-6.161 28.456,-3.514Zm-7.651,6.104c-2.641,-0.702 -6.024,-0.283 -7.55,0.934c-1.526,1.217 -0.622,2.776 2.019,3.478c2.642,0.702 6.024,0.284 7.55,-0.934c1.526,-1.217 0.622,-2.776 -2.019,-3.478Z" style="fill:#fff;"/>
                <path d="M148.705,114.797c0.223,-0.338 -0.427,25.187 -0.427,25.187l0.132,0.627l-0.006,9.563l-0.151,0.708l-0.439,0.664l-0.692,0.599l-0.914,0.521l-1.106,0.429l-1.276,0.325l-1.415,0.207l-1.506,0.071l-20.351,0.002l-1.472,-0.068l-1.399,-0.2l-1.291,-0.324l-1.141,-0.44l-0.938,-0.536l-0.689,-0.607l-0.426,-0.658l-0.146,-0.691l0.001,-0.325l-18.146,-0c-0.146,0.114 -0.298,0.226 -0.457,0.338c-6.489,4.588 -20.876,6.161 -32.107,3.514c-10.711,-2.524 -14.715,-7.98 -9.438,-12.459l-10.084,-7.128l-8.161,0l-1.397,-0.068l-1.33,-0.2l-1.226,-0.324l-1.083,-0.439l-0.89,-0.537l-0.655,-0.607l-0.404,-0.658l-0.138,-0.691l0.004,-9.562l0.145,-0.708l0.417,-0.665l0.658,-0.599l0.866,-0.52l1.051,-0.429l1.212,-0.326l1.343,-0.206c0,-0 1.428,-0.071 1.429,-0.071l6.93,-0.001l10.456,-7.392c0.022,0.053 0.044,0.106 0.067,0.159c1.341,3.082 5.029,6.217 10.293,7.532c11.202,2.8 25.494,0.999 32.169,-3.775l18.328,0l0.25,0.386c0.151,0.234 0.331,0.443 0.534,0.622l0.69,0.607c0.141,0.124 0.292,0.233 0.452,0.324l0.937,0.537c0.117,0.067 0.238,0.125 0.362,0.172l1.141,0.44c0.097,0.037 0.196,0.069 0.296,0.094l1.291,0.323c0.085,0.021 0.17,0.038 0.255,0.05l1.4,0.2c0.078,0.012 0.157,0.019 0.236,0.023l1.472,0.068c0.038,0.002 0.077,0.003 0.115,0.003l16.788,-0.002c0.039,0 0.078,-0.001 0.117,-0.003l1.505,-0.071c0.081,-0.004 0.161,-0.012 0.242,-0.023l1.415,-0.207c0.086,-0.013 0.172,-0.03 0.257,-0.051l1.277,-0.326c0.099,-0.025 0.196,-0.056 0.292,-0.094l1.106,-0.429c0.12,-0.046 0.237,-0.102 0.35,-0.166l0.913,-0.521c0.156,-0.088 0.303,-0.193 0.441,-0.312l0.692,-0.6c0.203,-0.175 0.383,-0.381 0.536,-0.612l0.438,0.336Z" style="fill:#fff;"/>
                <path d="M137.436,113.447l-0.002,-0l-22.045,0.002l-1.658,-0.067l-1.579,-0.196l-1.456,-0.317l-1.29,-0.432l-1.057,-0.526l-0.778,-0.595l-0.479,-0.644l-0.164,-0.677l0.004,-8.997l0.172,-0.694l0.496,-0.652l0.78,-0.587l1.031,-0.51l1.248,-0.42l1.44,-0.319l1.596,-0.202c-0,-0 1.699,-0.071 1.698,-0.071l22.047,-0.002l1.658,0.067l1.579,0.196l1.457,0.317l1.289,0.432l1.057,0.526l0.778,0.595l0.479,0.644l0.164,0.677l-0.004,8.999l-0.172,0.694l-0.496,0.651l-0.782,0.588l-1.03,0.509l-1.248,0.42l-1.44,0.319l-1.595,0.202l-1.698,0.07Zm-8.462,-6.907l0.001,-2.09l-5.12,0l-0.002,2.091l5.121,-0.001Z" style="fill:#fff;"/>
            </g>
            <path d="M82.549,139.106c8.075,2.003 10.847,6.447 6.184,9.918c-4.663,3.47 -15.006,4.66 -23.082,2.657c-8.076,-2.004 -10.848,-6.447 -6.185,-9.918c4.663,-3.471 15.007,-4.661 23.083,-2.657Zm-2.773,2.063c-5.425,-1.345 -12.373,-0.545 -15.505,1.786c-3.132,2.331 -1.271,5.317 4.153,6.662c5.424,1.346 12.372,0.546 15.505,-1.785c3.132,-2.332 1.271,-5.317 -4.153,-6.663Z" style="fill:#302043;"/>
            <path d="M81.535,140.135c7.106,1.675 9.544,5.39 5.442,8.29c-4.104,2.901 -13.204,3.896 -20.311,2.222c-7.107,-1.675 -9.545,-5.389 -5.442,-8.29c4.103,-2.901 13.204,-3.896 20.311,-2.222Z" style="fill:#6e5179;"/>
            <path d="M141.017,151.366l-20.577,0.002c-0.68,-0 -1.332,-0.126 -1.813,-0.349c-0.481,-0.224 -0.752,-0.527 -0.752,-0.843l0.005,-9.563c-0,-0.658 1.149,-1.192 2.565,-1.192l20.577,-0.002c0.68,-0 1.333,0.125 1.813,0.349c0.481,0.223 0.752,0.527 0.752,0.843l-0.005,9.563c-0,0.658 -1.148,1.192 -2.565,1.192Zm-2.564,-2.384l0.003,-7.179l-15.446,0.002l-0.004,7.178l15.447,-0.001Z" style="fill:#302043;"/>
            <path d="M142.443,150.174l-23.429,0.002l0.005,-9.563l23.429,-0.002l-0.005,9.563Z" style="fill:#6e5179;"/>
            <path d="M52.828,131.783l-20.576,0.001c-0.68,0 -1.332,-0.125 -1.814,-0.349c-0.481,-0.223 -0.752,-0.527 -0.752,-0.843l0.005,-9.562c-0,-0.658 1.149,-1.192 2.565,-1.192l20.576,-0.003c0.681,0 1.334,0.126 1.815,0.349c0.48,0.224 0.751,0.527 0.751,0.843l-0.005,9.563c-0,0.659 -1.149,1.193 -2.565,1.193Zm-2.563,-2.385l0.003,-7.178l-15.447,0.001l-0.003,7.179l15.447,-0.002Z" style="fill:#302043;"/>
            <path d="M54.253,130.59l-23.428,0.002l0.005,-9.562l23.429,-0.003l-0.006,9.563Z" style="fill:#6e5179;"/>
            <path d="M95.127,146.148l-0,-2.093c-0.001,-0.201 0.4,-0.365 0.893,-0.365l8.748,0l0,-1.579c0,-0.148 0.217,-0.28 0.552,-0.337c0.333,-0.056 0.717,-0.025 0.973,0.079l7.327,2.991c0.348,0.142 0.348,0.373 -0.001,0.515l-7.325,2.991c-0.257,0.104 -0.64,0.135 -0.974,0.079c-0.335,-0.057 -0.552,-0.19 -0.552,-0.337l0,-1.579l-8.749,-0c-0.493,-0 -0.892,-0.164 -0.892,-0.365Z" style="fill:#271d2b;"/>
            <path d="M62.832,137.277l-4.441,1.046c-0.428,0.101 -0.974,0.041 -1.221,-0.133l-1.423,-1.007l-3.351,0.79c-0.313,0.073 -0.704,0.063 -0.99,-0.027c-0.286,-0.09 -0.413,-0.241 -0.32,-0.384l2.682,-4.084c0.127,-0.195 0.618,-0.31 1.094,-0.258l10.008,1.094c0.348,0.039 0.608,0.159 0.654,0.305c0.047,0.146 -0.126,0.289 -0.439,0.363l-3.351,0.79l1.425,1.007c0.247,0.174 0.1,0.397 -0.327,0.498Z" style="fill:#271d2b;"/>
            <g opacity="0.85">
                <path d="M149.68,72.815l5.43,3.839c3.31,0.018 6.654,0.433 9.722,1.285c9.528,2.647 12.8,8.519 7.295,13.106c-3.548,2.957 -9.882,4.662 -16.489,4.791l-9.143,6.464l0.133,0.627l-0.006,8.303l-0.152,0.707l-0.438,0.665l-0.692,0.599l-0.914,0.52l-1.106,0.43l-1.276,0.325l-1.415,0.207l-1.506,0.071l-16.787,0.002l-1.472,-0.069l-1.399,-0.2l-1.291,-0.323l-1.141,-0.44l-0.938,-0.536l-0.689,-0.608l-0.426,-0.657l-0.145,-0.691l-0,-0.325l-21.116,-0c-0.137,0.113 -0.28,0.225 -0.428,0.336c-6.12,4.587 -19.687,6.16 -30.279,3.514c-7.058,-1.764 -10.918,-7.024 -7.628,-10.704l-12.563,-8.881l0,-16.611c0,-0 8.943,-7.15 8.95,-7.134c1.299,2.979 4.445,5.908 10.428,7.738c6.733,2.06 14.366,2.435 20.605,1.122c4.186,-0.88 7.763,-2.55 10.219,-4.852l19.723,0l0.156,0.242c0.169,0.26 0.369,0.493 0.594,0.692l0.69,0.607c0.157,0.138 0.325,0.259 0.503,0.36l0.937,0.537c0.13,0.075 0.265,0.139 0.403,0.192l1.141,0.439c0.108,0.042 0.218,0.077 0.329,0.105l1.291,0.323c0.094,0.024 0.189,0.042 0.284,0.056l1.399,0.2c0.088,0.012 0.175,0.021 0.263,0.025l1.472,0.068c0.043,0.002 0.085,0.003 0.128,0.003l16.788,-0.002c0.043,0 0.086,-0.001 0.13,-0.003l1.505,-0.071c0.09,-0.004 0.18,-0.013 0.269,-0.026l1.415,-0.207c0.096,-0.014 0.192,-0.033 0.286,-0.057l1.277,-0.325c0.11,-0.028 0.218,-0.063 0.325,-0.105l1.106,-0.429c0.134,-0.052 0.264,-0.113 0.389,-0.185l0.914,-0.52c0.172,-0.099 0.337,-0.215 0.49,-0.348l0.692,-0.599c0.226,-0.195 0.426,-0.425 0.595,-0.681l0.439,-0.665c0.248,-0.375 0.426,-0.802 0.523,-1.255l0.201,-0.991Z"/>
            </g>
            <path d="M164.648,79.959c7.65,2.003 10.275,6.448 5.856,9.92c-4.419,3.472 -14.218,4.663 -21.868,2.66c-7.651,-2.004 -10.275,-6.449 -5.856,-9.92c4.419,-3.473 14.218,-4.664 21.868,-2.66Zm-2.628,2.064c-5.138,-1.345 -11.721,-0.545 -14.689,1.788c-2.968,2.332 -1.206,5.317 3.933,6.663c5.139,1.346 11.72,0.545 14.688,-1.787c2.969,-2.332 1.207,-5.318 -3.932,-6.664Z" style="fill:#c8b7dd;"/>
            <path d="M164.079,80.991c7.107,1.675 9.544,5.39 5.439,8.292c-4.105,2.902 -13.207,3.898 -20.313,2.224c-7.107,-1.675 -9.544,-5.391 -5.439,-8.293c4.105,-2.901 13.206,-3.897 20.313,-2.223Z" style="fill:#6e5179;"/>
            <path d="M82.549,100.159c8.075,2.003 10.847,6.448 6.184,9.918c-4.663,3.471 -15.006,4.661 -23.082,2.658c-8.076,-2.004 -10.848,-6.448 -6.185,-9.919c4.663,-3.47 15.007,-4.661 23.083,-2.657Zm-2.773,2.064c-5.425,-1.346 -12.373,-0.546 -15.505,1.786c-3.132,2.331 -1.271,5.316 4.153,6.662c5.424,1.345 12.372,0.545 15.505,-1.786c3.132,-2.331 1.271,-5.316 -4.153,-6.662Z" style="fill:#c8b7dd;"/>
            <path d="M81.535,101.191c7.106,1.675 9.544,5.389 5.442,8.29c-4.104,2.901 -13.204,3.896 -20.311,2.222c-7.107,-1.675 -9.545,-5.39 -5.442,-8.29c4.103,-2.901 13.204,-3.897 20.311,-2.222Z" style="fill:#6e5179;"/>
            <path d="M141.017,112.422l-20.577,0.002c-0.68,-0 -1.332,-0.126 -1.813,-0.349c-0.481,-0.224 -0.752,-0.527 -0.752,-0.843l0.005,-9.563c-0,-0.658 1.149,-1.192 2.565,-1.192l20.577,-0.003c0.68,0 1.333,0.126 1.813,0.35c0.481,0.223 0.752,0.527 0.752,0.843l-0.005,9.563c-0,0.658 -1.148,1.192 -2.565,1.192Zm-2.564,-2.384l0.003,-7.179l-15.446,0.002l-0.004,7.178l15.447,-0.001Z" style="fill:#c8b7dd;"/>
            <path d="M142.443,111.23l-23.429,0.002l0.005,-9.563l23.429,-0.002l-0.005,9.563Z" style="fill:#6e5179;"/>
            <path d="M95.127,107.204l-0,-2.093c-0.001,-0.201 0.4,-0.365 0.893,-0.365l8.748,0l0,-1.579c0,-0.148 0.217,-0.28 0.552,-0.337c0.333,-0.056 0.717,-0.025 0.973,0.079l7.327,2.991c0.348,0.142 0.348,0.373 -0.001,0.515l-7.325,2.991c-0.257,0.104 -0.64,0.135 -0.974,0.079c-0.335,-0.057 -0.552,-0.19 -0.552,-0.337l0,-1.579l-8.749,-0c-0.493,-0 -0.892,-0.164 -0.892,-0.365Z" style="fill:#fff;"/>
            <path d="M139.927,98.782l-4.441,-1.046c-0.427,-0.101 -0.597,-0.308 -0.378,-0.462l1.83,-1.294l-3.351,-0.79c-0.312,-0.073 -0.498,-0.208 -0.47,-0.34c0.028,-0.133 0.265,-0.237 0.599,-0.265l9.586,-0.797c0.456,-0.038 0.946,0.077 1.094,0.258l3.104,3.787c0.107,0.132 0.003,0.267 -0.264,0.344c-0.267,0.076 -0.646,0.078 -0.96,0.004l-3.35,-0.79l-1.829,1.294c-0.22,0.155 -0.742,0.198 -1.17,0.097Z" style="fill:#fff;"/>
            <g opacity="0.85">
                <path d="M155.638,56.892l-9.143,6.463l0.133,0.628l-0.006,8.303l-0.152,0.707l-0.438,0.665l-0.692,0.599l-0.914,0.52l-1.106,0.43l-1.276,0.325l-1.415,0.207l-1.506,0.071l-16.787,0.002l-1.472,-0.069l-1.399,-0.2l-1.291,-0.323l-1.141,-0.44l-0.938,-0.537l-0.689,-0.607l-0.426,-0.658l-0.145,-0.691l-0,-0.324l-22.896,-0c-0.137,0.113 -0.3,0.199 -0.431,0.338c-5.228,5.588 -18.027,6.716 -28.496,3.514c-7.95,-2.432 -10.028,-6.586 -8.518,-10.965l-11.673,-8.622l-8.161,0l-1.397,-0.068l-1.33,-0.2l-1.226,-0.324l-1.083,-0.44l-0.89,-0.536l-0.655,-0.607l-0.404,-0.658l-0.138,-0.691l0.004,-9.562l0.145,-0.708l0.417,-0.665l0.658,-0.6l0.866,-0.519l1.051,-0.43l1.212,-0.325l1.343,-0.206c0,-0 1.428,-0.071 1.429,-0.072l6.93,-0.001l11.875,-8.395c-2.331,-2.648 -2.084,-5.746 1.256,-8.411c5.751,-4.587 18.503,-6.16 28.457,-3.513c3.441,0.915 6.102,2.216 7.872,3.715l18.574,0l0.127,-0.596l0.428,-0.652l0.673,-0.587l0.889,-0.51l1.077,-0.42l1.243,-0.319l1.377,-0.202c-0,-0 1.466,-0.071 1.465,-0.071l16.349,-0.002l1.431,0.067l1.362,0.196l1.257,0.317l1.113,0.432l0.912,0.526l0.671,0.595l0.413,0.644l0.142,0.677l-0.003,4.201l15.086,10.402l0,19.182Z" style="fill:#fff;"/>
            </g>
            <path d="M81.214,21.317c8.076,2.003 10.847,6.448 6.182,9.92c-4.664,3.472 -15.009,4.663 -23.086,2.66c-8.075,-2.003 -10.846,-6.449 -6.181,-9.92c4.664,-3.473 15.01,-4.664 23.085,-2.66Zm-2.774,2.064c-5.424,-1.345 -12.372,-0.545 -15.506,1.787c-3.134,2.333 -1.273,5.319 4.151,6.664c5.425,1.346 12.373,0.545 15.506,-1.787c3.134,-2.332 1.274,-5.318 -4.151,-6.664Z" style="fill:#302043;"/>
            <path d="M80.199,22.349c7.106,1.675 9.544,5.39 5.439,8.292c-4.104,2.902 -13.206,3.898 -20.313,2.223c-7.106,-1.674 -9.543,-5.39 -5.439,-8.291c4.105,-2.902 13.207,-3.899 20.313,-2.224Z" style="fill:#6e5179;"/>
            <path d="M82.549,61.215c8.075,2.003 10.847,6.448 6.184,9.918c-4.663,3.471 -15.006,4.661 -23.082,2.658c-8.076,-2.004 -10.848,-6.448 -6.185,-9.919c4.663,-3.47 15.007,-4.661 23.083,-2.657Zm-2.773,2.064c-5.425,-1.346 -12.373,-0.546 -15.505,1.786c-3.132,2.331 -1.271,5.316 4.153,6.662c5.424,1.345 12.372,0.545 15.505,-1.786c3.132,-2.331 1.271,-5.317 -4.153,-6.662Z" style="fill:#302043;"/>
            <path d="M81.535,62.247c7.106,1.675 9.544,5.389 5.442,8.29c-4.104,2.901 -13.204,3.896 -20.311,2.221c-7.107,-1.674 -9.545,-5.389 -5.442,-8.29c4.103,-2.9 13.204,-3.896 20.311,-2.221Z" style="fill:#6e5179;"/>
            <path d="M136.008,33.227l-19.192,0.002c-0.634,-0 -1.242,-0.119 -1.692,-0.329c-0.448,-0.211 -0.7,-0.496 -0.7,-0.793l0.004,-8.998c-0,-0.619 1.071,-1.121 2.392,-1.121l19.193,-0.003c0.634,0 1.243,0.118 1.691,0.329c0.449,0.21 0.701,0.495 0.701,0.793l-0.004,8.998c-0,0.619 -1.072,1.122 -2.393,1.122Zm-2.391,-2.243l0.003,-6.755l-14.407,0.001l-0.003,6.755l14.407,-0.001Z" style="fill:#302043;"/>
            <path d="M137.434,32.105l-22.045,0.002l0.005,-8.998l22.046,-0.002l-0.006,8.998Z" style="fill:#6e5179;"/>
            <path d="M141.017,73.478l-20.577,0.002c-0.68,-0 -1.332,-0.126 -1.813,-0.35c-0.481,-0.223 -0.752,-0.526 -0.752,-0.843l0.005,-9.562c-0,-0.658 1.149,-1.192 2.565,-1.192l20.577,-0.003c0.68,0 1.333,0.126 1.813,0.35c0.481,0.223 0.752,0.527 0.752,0.843l-0.005,9.563c-0,0.658 -1.148,1.192 -2.565,1.192Zm-2.564,-2.384l0.003,-7.179l-15.446,0.002l-0.004,7.178l15.447,-0.001Z" style="fill:#302043;"/>
            <path d="M142.443,72.286l-23.429,0.001l0.005,-9.562l23.429,-0.002l-0.005,9.563Z" style="fill:#6e5179;"/>
            <path d="M52.828,53.894l-20.576,0.002c-0.68,0 -1.332,-0.126 -1.814,-0.349c-0.481,-0.224 -0.752,-0.527 -0.752,-0.843l0.005,-9.562c-0,-0.659 1.149,-1.193 2.565,-1.193l20.576,-0.002c0.681,-0 1.334,0.126 1.815,0.349c0.48,0.223 0.751,0.527 0.751,0.843l-0.005,9.563c-0,0.658 -1.149,1.192 -2.565,1.192Zm-2.563,-2.384l0.003,-7.179l-15.447,0.002l-0.003,7.178l15.447,-0.001Z" style="fill:#302043;"/>
            <path d="M54.253,52.702l-23.428,0.002l0.005,-9.562l23.429,-0.003l-0.006,9.563Z" style="fill:#6e5179;"/>
            <path d="M93.021,28.745l-0,-2.093c-0,-0.201 0.401,-0.365 0.894,-0.364l7.257,-0l-0,-1.58c-0,-0.147 0.217,-0.28 0.551,-0.336c0.334,-0.057 0.718,-0.026 0.974,0.078l7.326,2.99c0.349,0.143 0.349,0.374 0.001,0.516l-7.327,2.991c-0.256,0.104 -0.641,0.135 -0.974,0.079c-0.333,-0.056 -0.551,-0.19 -0.551,-0.337l-0,-1.579l-7.257,-0c-0.494,-0 -0.893,-0.163 -0.894,-0.365Z" style="fill:#271d2b;"/>
            <path d="M112.881,66.167l0,2.093c0.001,0.201 -0.4,0.365 -0.894,0.365l-8.747,-0l-0,1.579c-0,0.148 -0.218,0.28 -0.552,0.337c-0.333,0.056 -0.717,0.025 -0.973,-0.079l-7.327,-2.991c-0.349,-0.142 -0.349,-0.373 0.001,-0.515l7.325,-2.991c0.257,-0.104 0.64,-0.135 0.974,-0.079c0.334,0.057 0.552,0.19 0.552,0.337l-0,1.579l8.748,0c0.494,0 0.893,0.164 0.893,0.365Z" style="fill:#271d2b;"/>
            <path d="M62.832,59.389l-4.441,1.046c-0.428,0.101 -0.974,0.041 -1.221,-0.133l-1.423,-1.007l-3.351,0.789c-0.313,0.074 -0.704,0.064 -0.99,-0.026c-0.286,-0.09 -0.413,-0.241 -0.32,-0.384l2.682,-4.085c0.127,-0.194 0.618,-0.309 1.094,-0.257l10.008,1.094c0.348,0.038 0.608,0.159 0.654,0.305c0.047,0.146 -0.126,0.289 -0.439,0.363l-3.351,0.79l1.425,1.007c0.247,0.174 0.1,0.397 -0.327,0.498Z" style="fill:#271d2b;"/>
            <path d="M58.459,40.776l-4.441,-1.047c-0.428,-0.1 -0.581,-0.318 -0.344,-0.486l2.331,-1.648l-3.35,-0.789c-0.314,-0.074 -0.491,-0.214 -0.45,-0.356c0.041,-0.143 0.292,-0.258 0.637,-0.293l9.872,-0.999c0.471,-0.047 0.961,0.068 1.095,0.258l2.816,3.99c0.098,0.139 -0.02,0.285 -0.301,0.371c-0.281,0.085 -0.667,0.093 -0.98,0.019l-3.351,-0.79l-2.33,1.648c-0.238,0.168 -0.777,0.223 -1.204,0.122Z" style="fill:#271d2b;"/>
        </g>
    </g>
    <g transform="matrix(5.45977,0,0,5.45977,-945.907,-688.245)">
        <g transform="matrix(7.32631,0,0,7.32631,212.112,139.363)">
            <path d="M0.038,-0l0,-0.043l0.088,-0.019l-0.01,0.015l0,-0.431l0.011,0.015l-0.089,-0.019l-0,-0.043l0.14,-0.007l0.011,0.098l-0.011,-0.004c0.03,-0.031 0.059,-0.056 0.088,-0.073c0.029,-0.017 0.06,-0.026 0.094,-0.026c0.021,0 0.044,0.003 0.067,0.01l-0.006,0.14l-0.05,0l-0.012,-0.099l0.009,0.018c-0.005,-0.001 -0.01,-0.002 -0.015,-0.003c-0.005,-0.001 -0.011,-0.001 -0.016,-0.001c-0.027,-0 -0.053,0.008 -0.078,0.024c-0.025,0.016 -0.048,0.037 -0.071,0.062l0.008,-0.024l0,0.363l-0.012,-0.015l0.109,0.019l0,0.043l-0.255,-0Z" style="fill-rule:nonzero;"/>
        </g>
        <g transform="matrix(7.32631,0,0,7.32631,215.13,139.363)">
            <path d="M0.276,0.009c-0.045,0 -0.084,-0.01 -0.119,-0.03c-0.034,-0.021 -0.061,-0.051 -0.08,-0.09c-0.019,-0.039 -0.029,-0.087 -0.029,-0.144c-0,-0.058 0.01,-0.108 0.03,-0.15c0.02,-0.042 0.048,-0.074 0.085,-0.097c0.037,-0.023 0.08,-0.035 0.129,-0.035c0.047,0 0.085,0.01 0.115,0.03c0.031,0.019 0.053,0.046 0.068,0.081c0.015,0.035 0.023,0.074 0.023,0.119c-0,0.007 -0,0.015 -0.001,0.022c-0.001,0.007 -0.002,0.016 -0.003,0.027l-0.385,-0l-0,-0.057l0.315,-0l-0.009,0.006c0.001,-0.03 -0.003,-0.058 -0.011,-0.083c-0.008,-0.025 -0.022,-0.046 -0.041,-0.061c-0.019,-0.015 -0.045,-0.023 -0.077,-0.023c-0.034,-0 -0.063,0.009 -0.086,0.027c-0.023,0.018 -0.041,0.043 -0.052,0.074c-0.011,0.031 -0.017,0.068 -0.017,0.109c0,0.044 0.006,0.082 0.019,0.114c0.013,0.031 0.031,0.056 0.055,0.073c0.025,0.017 0.055,0.026 0.09,0.026c0.025,-0 0.052,-0.005 0.081,-0.014c0.029,-0.01 0.06,-0.025 0.091,-0.045l0.029,0.045c-0.037,0.025 -0.075,0.044 -0.112,0.057c-0.037,0.013 -0.073,0.019 -0.108,0.019Z" style="fill-rule:nonzero;"/>
        </g>
        <g transform="matrix(7.32631,0,0,7.32631,219.138,139.363)">
            <path d="M0.038,-0l0,-0.043l0.09,-0.02l-0.012,0.015l0,-0.43l0.012,0.015l-0.09,-0.019l-0,-0.043l0.14,-0.007l0.011,0.098l-0.011,-0.004c0.033,-0.034 0.068,-0.059 0.104,-0.075c0.037,-0.016 0.071,-0.024 0.104,-0.024c0.044,0 0.08,0.014 0.109,0.041c0.029,0.027 0.044,0.068 0.043,0.125l0,0.323l-0.01,-0.014l0.088,0.019l0,0.043l-0.233,0l0,-0.043l0.087,-0.019l-0.012,0.015l0,-0.307c0,-0.041 -0.009,-0.072 -0.028,-0.091c-0.019,-0.019 -0.044,-0.029 -0.075,-0.029c-0.025,0 -0.052,0.007 -0.081,0.02c-0.029,0.013 -0.057,0.034 -0.085,0.062l0.007,-0.016l0,0.361l-0.01,-0.014l0.085,0.018l0,0.043l-0.233,0Z" style="fill-rule:nonzero;"/>
        </g>
        <g transform="matrix(7.32631,0,0,7.32631,223.775,139.363)">
            <path d="M0.276,0.009c-0.045,0 -0.084,-0.01 -0.119,-0.03c-0.034,-0.021 -0.061,-0.051 -0.08,-0.09c-0.019,-0.039 -0.029,-0.087 -0.029,-0.144c-0,-0.058 0.01,-0.108 0.03,-0.15c0.02,-0.042 0.048,-0.074 0.085,-0.097c0.037,-0.023 0.08,-0.035 0.129,-0.035c0.047,0 0.085,0.01 0.115,0.03c0.031,0.019 0.053,0.046 0.068,0.081c0.015,0.035 0.023,0.074 0.023,0.119c-0,0.007 -0,0.015 -0.001,0.022c-0.001,0.007 -0.002,0.016 -0.003,0.027l-0.385,-0l-0,-0.057l0.315,-0l-0.009,0.006c0.001,-0.03 -0.003,-0.058 -0.011,-0.083c-0.008,-0.025 -0.022,-0.046 -0.041,-0.061c-0.019,-0.015 -0.045,-0.023 -0.077,-0.023c-0.034,-0 -0.063,0.009 -0.086,0.027c-0.023,0.018 -0.041,0.043 -0.052,0.074c-0.011,0.031 -0.017,0.068 -0.017,0.109c0,0.044 0.006,0.082 0.019,0.114c0.013,0.031 0.031,0.056 0.055,0.073c0.025,0.017 0.055,0.026 0.09,0.026c0.025,-0 0.052,-0.005 0.081,-0.014c0.029,-0.01 0.06,-0.025 0.091,-0.045l0.029,0.045c-0.037,0.025 -0.075,0.044 -0.112,0.057c-0.037,0.013 -0.073,0.019 -0.108,0.019Z" style="fill-rule:nonzero;"/>
        </g>
        <g transform="matrix(7.32631,0,0,7.32631,227.6,139.363)">
            <path d="M0.603,-0.525l0.201,-0.007l0,0.044l-0.07,0.017l0.014,-0.012l-0.137,0.485l-0.088,0l-0.13,-0.472l0.016,0l-0.138,0.472l-0.088,0l-0.131,-0.483l0.012,0.012l-0.069,-0.013l-0,-0.043l0.216,-0.007l-0,0.044l-0.091,0.016l0.009,-0.01l0.111,0.435l-0.013,0l0.134,-0.479l0.087,-0.006l0.129,0.488l-0.013,0l0.117,-0.436l0.009,0.011l-0.087,-0.013l-0,-0.043Z" style="fill-rule:nonzero;"/>
        </g>
        <g transform="matrix(7.32631,0,0,7.32631,233.454,139.363)">
            <path d="M0.504,-0.164l0.05,0l0,0.164l-0.505,-0l-0,-0.043l0.099,-0.021l-0.013,0.018l-0,-0.604l0.013,0.018l-0.099,-0.018l-0,-0.043l0.167,-0.005l0.326,0l0,0.158l-0.05,0l-0.018,-0.11l0.017,0.013l-0.289,0l0.015,-0.015l-0,0.28l-0.015,-0.015l0.267,0l-0,0.06l-0.267,0l0.015,-0.017l-0,0.298l-0.015,-0.015l0.302,0l-0.018,0.015l0.018,-0.118Z" style="fill-rule:nonzero;"/>
        </g>
        <g transform="matrix(7.32631,0,0,7.32631,237.783,139.363)">
            <path d="M0.01,-0l0,-0.043l0.087,-0.016l-0.022,0.013l0.161,-0.234l0.019,-0.004l0.161,-0.241l0.112,-0.007l0,0.044l-0.086,0.019l0.025,-0.016l-0.157,0.223l-0.017,0.004l-0.171,0.258l-0.112,-0Zm0.305,-0l0,-0.043l0.074,-0.012l-0.005,0.012l-0.142,-0.207l-0.164,-0.235l0.02,0.016l-0.077,-0.013l0,-0.043l0.214,-0.007l0,0.044l-0.078,0.014l0.007,-0.014l0.133,0.194l0.173,0.248l-0.017,-0.012l0.085,0.015l0,0.043l-0.223,0Z" style="fill-rule:nonzero;"/>
        </g>
        <g transform="matrix(10.44,0,0,10.44,211.453,149.437)">
            <path d="M0.344,0.011c-0.054,0 -0.104,-0.013 -0.149,-0.04c-0.045,-0.027 -0.08,-0.068 -0.107,-0.121c-0.027,-0.053 -0.04,-0.119 -0.04,-0.197c-0,-0.077 0.013,-0.142 0.039,-0.197c0.027,-0.055 0.064,-0.096 0.112,-0.125c0.048,-0.029 0.104,-0.044 0.168,-0.044c0.035,0 0.07,0.004 0.106,0.013c0.037,0.008 0.075,0.021 0.116,0.038l-0.008,0.173l-0.073,0l-0.022,-0.12l0.021,0.021c-0.025,-0.01 -0.049,-0.017 -0.072,-0.022c-0.023,-0.005 -0.044,-0.008 -0.064,-0.008c-0.041,0 -0.075,0.01 -0.104,0.031c-0.028,0.02 -0.05,0.049 -0.065,0.088c-0.015,0.038 -0.022,0.083 -0.022,0.136c-0,0.061 0.008,0.111 0.025,0.152c0.017,0.041 0.04,0.071 0.069,0.092c0.03,0.02 0.064,0.03 0.101,0.03c0.027,-0 0.056,-0.006 0.087,-0.017c0.031,-0.012 0.061,-0.03 0.091,-0.055l0.046,0.072c-0.041,0.033 -0.083,0.058 -0.127,0.075c-0.043,0.017 -0.086,0.025 -0.128,0.025Z" style="fill-rule:nonzero;"/>
        </g>
        <g transform="matrix(10.44,0,0,10.44,217.738,149.437)">
            <path d="M0.295,-0.543c0.077,0 0.137,0.023 0.18,0.07c0.043,0.046 0.065,0.112 0.065,0.197c0,0.059 -0.011,0.11 -0.032,0.153c-0.021,0.043 -0.051,0.076 -0.09,0.099c-0.039,0.023 -0.085,0.035 -0.14,0.035c-0.077,0 -0.136,-0.023 -0.179,-0.069c-0.042,-0.046 -0.063,-0.112 -0.063,-0.198c-0,-0.059 0.01,-0.11 0.031,-0.153c0.021,-0.043 0.05,-0.076 0.089,-0.099c0.039,-0.023 0.085,-0.035 0.139,-0.035Zm-0.006,0.086c-0.042,0 -0.074,0.016 -0.096,0.049c-0.021,0.033 -0.032,0.081 -0.032,0.146c-0,0.065 0.01,0.112 0.031,0.142c0.021,0.03 0.051,0.045 0.092,0.045c0.029,0 0.054,-0.007 0.073,-0.022c0.019,-0.015 0.034,-0.037 0.044,-0.066c0.01,-0.029 0.015,-0.065 0.015,-0.107c0,-0.063 -0.011,-0.109 -0.033,-0.14c-0.021,-0.031 -0.053,-0.047 -0.094,-0.047Z" style="fill-rule:nonzero;"/>
        </g>
        <g transform="matrix(10.44,0,0,10.44,223.751,149.437)">
            <path d="M0.032,-0l0,-0.062l0.086,-0.023l-0.015,0.018l0,-0.397l0.015,0.02l-0.086,-0.023l0,-0.062l0.164,-0.008l0.016,0.097l-0.016,-0.006c0.033,-0.033 0.067,-0.058 0.103,-0.073c0.036,-0.016 0.07,-0.024 0.103,-0.024c0.045,0 0.082,0.014 0.111,0.042c0.03,0.028 0.045,0.07 0.044,0.127l0,0.307l-0.012,-0.018l0.083,0.023l0,0.062l-0.256,0l0,-0.062l0.08,-0.021l-0.015,0.019l0,-0.284c0,-0.035 -0.008,-0.061 -0.024,-0.078c-0.015,-0.017 -0.036,-0.025 -0.062,-0.025c-0.02,0 -0.042,0.006 -0.066,0.017c-0.024,0.011 -0.048,0.027 -0.071,0.05l0.009,-0.019l0,0.339l-0.012,-0.019l0.077,0.021l0,0.062l-0.256,0Z" style="fill-rule:nonzero;"/>
        </g>
        <g transform="matrix(10.44,0,0,10.44,230.172,149.437)">
            <path d="M0.322,-0.528l0.22,-0.008l0,0.062l-0.06,0.023l0.017,-0.019l-0.168,0.472l-0.141,-0l-0.149,-0.468l0.018,0.015l-0.063,-0.015l-0,-0.062l0.236,-0.008l-0,0.062l-0.079,0.02l0.01,-0.016l0.112,0.396l-0.01,0l0.124,-0.389l0.007,0.01l-0.074,-0.013l-0,-0.062Z" style="fill-rule:nonzero;"/>
        </g>
        <g transform="matrix(10.44,0,0,10.44,235.527,149.437)">
            <path d="M0.275,0.011c-0.047,0 -0.088,-0.01 -0.124,-0.03c-0.036,-0.021 -0.064,-0.051 -0.084,-0.091c-0.02,-0.04 -0.03,-0.089 -0.03,-0.147c-0,-0.059 0.01,-0.11 0.031,-0.153c0.021,-0.043 0.051,-0.075 0.089,-0.098c0.039,-0.023 0.084,-0.035 0.137,-0.035c0.05,0 0.091,0.01 0.122,0.031c0.032,0.02 0.056,0.048 0.071,0.083c0.015,0.035 0.023,0.075 0.023,0.12c0,0.01 -0,0.02 -0.001,0.03c-0.001,0.01 -0.002,0.021 -0.004,0.033l-0.372,0l0,-0.076l0.267,0l-0.014,0.009c0.001,-0.027 -0.002,-0.051 -0.009,-0.072c-0.006,-0.021 -0.017,-0.038 -0.032,-0.051c-0.015,-0.013 -0.036,-0.019 -0.061,-0.019c-0.029,0 -0.052,0.008 -0.071,0.024c-0.018,0.016 -0.031,0.038 -0.04,0.065c-0.008,0.027 -0.012,0.058 -0.012,0.093c0,0.038 0.005,0.072 0.015,0.101c0.01,0.029 0.026,0.051 0.047,0.068c0.021,0.017 0.048,0.025 0.081,0.025c0.023,0 0.049,-0.004 0.076,-0.013c0.027,-0.009 0.056,-0.022 0.085,-0.04l0.041,0.065c-0.038,0.026 -0.077,0.046 -0.116,0.059c-0.039,0.013 -0.078,0.019 -0.115,0.019Z" style="fill-rule:nonzero;"/>
        </g>
        <g transform="matrix(10.44,0,0,10.44,241.248,149.437)">
            <path d="M0.032,-0l0,-0.062l0.083,-0.022l-0.012,0.019l0,-0.4l0.014,0.021l-0.085,-0.023l0,-0.062l0.164,-0.008l0.016,0.096l-0.016,-0.004c0.03,-0.031 0.059,-0.055 0.088,-0.072c0.029,-0.017 0.061,-0.026 0.095,-0.026c0.021,0 0.044,0.003 0.067,0.01l-0.008,0.168l-0.071,0l-0.013,-0.103l0.011,0.024c-0.004,-0.001 -0.008,-0.002 -0.013,-0.003c-0.005,-0.001 -0.009,-0.001 -0.014,-0.001c-0.023,0 -0.045,0.007 -0.067,0.021c-0.021,0.013 -0.041,0.031 -0.058,0.053l0.01,-0.033l0,0.342l-0.015,-0.019l0.102,0.022l0,0.062l-0.278,0Z" style="fill-rule:nonzero;"/>
        </g>
        <g transform="matrix(10.44,0,0,10.44,246.061,149.437)">
            <path d="M0.221,0.011c-0.042,0 -0.074,-0.013 -0.097,-0.038c-0.023,-0.026 -0.034,-0.065 -0.034,-0.116l0,-0.325l0.017,0.017l-0.099,0l0,-0.065l0.1,-0.02l-0.018,0.021l0,-0.135l0.121,-0.021l0,0.156l-0.014,-0.017l0.154,0l-0.002,0.081l-0.152,0l0.014,-0.017l0,0.309c0,0.029 0.005,0.049 0.015,0.062c0.01,0.013 0.024,0.019 0.043,0.019c0.011,0 0.024,-0.002 0.037,-0.006c0.013,-0.004 0.028,-0.009 0.043,-0.015l0.023,0.066c-0.053,0.029 -0.103,0.044 -0.151,0.044Z" style="fill-rule:nonzero;"/>
        </g>
        <g transform="matrix(10.44,0,0,10.44,249.966,149.437)">
            <path d="M0.275,0.011c-0.047,0 -0.088,-0.01 -0.124,-0.03c-0.036,-0.021 -0.064,-0.051 -0.084,-0.091c-0.02,-0.04 -0.03,-0.089 -0.03,-0.147c-0,-0.059 0.01,-0.11 0.031,-0.153c0.021,-0.043 0.051,-0.075 0.089,-0.098c0.039,-0.023 0.084,-0.035 0.137,-0.035c0.05,0 0.091,0.01 0.122,0.031c0.032,0.02 0.056,0.048 0.071,0.083c0.015,0.035 0.023,0.075 0.023,0.12c0,0.01 -0,0.02 -0.001,0.03c-0.001,0.01 -0.002,0.021 -0.004,0.033l-0.372,0l0,-0.076l0.267,0l-0.014,0.009c0.001,-0.027 -0.002,-0.051 -0.009,-0.072c-0.006,-0.021 -0.017,-0.038 -0.032,-0.051c-0.015,-0.013 -0.036,-0.019 -0.061,-0.019c-0.029,0 -0.052,0.008 -0.071,0.024c-0.018,0.016 -0.031,0.038 -0.04,0.065c-0.008,0.027 -0.012,0.058 -0.012,0.093c0,0.038 0.005,0.072 0.015,0.101c0.01,0.029 0.026,0.051 0.047,0.068c0.021,0.017 0.048,0.025 0.081,0.025c0.023,0 0.049,-0.004 0.076,-0.013c0.027,-0.009 0.056,-0.022 0.085,-0.04l0.041,0.065c-0.038,0.026 -0.077,0.046 -0.116,0.059c-0.039,0.013 -0.078,0.019 -0.115,0.019Z" style="fill-rule:nonzero;"/>
        </g>
        <g transform="matrix(10.44,0,0,10.44,255.687,149.437)">
            <path d="M0.032,-0l0,-0.062l0.083,-0.022l-0.012,0.019l0,-0.4l0.014,0.021l-0.085,-0.023l0,-0.062l0.164,-0.008l0.016,0.096l-0.016,-0.004c0.03,-0.031 0.059,-0.055 0.088,-0.072c0.029,-0.017 0.061,-0.026 0.095,-0.026c0.021,0 0.044,0.003 0.067,0.01l-0.008,0.168l-0.071,0l-0.013,-0.103l0.011,0.024c-0.004,-0.001 -0.008,-0.002 -0.013,-0.003c-0.005,-0.001 -0.009,-0.001 -0.014,-0.001c-0.023,0 -0.045,0.007 -0.067,0.021c-0.021,0.013 -0.041,0.031 -0.058,0.053l0.01,-0.033l0,0.342l-0.015,-0.019l0.102,0.022l0,0.062l-0.278,0Z" style="fill-rule:nonzero;"/>
        </g>
    </g>
</svg>
